<svg width="24" height="9" viewBox="0 0 24 9" fill="none" xmlns="http://www.w3.org/2000/svg">
<path d="M23.9099 4.01102C23.8528 3.85342 23.7671 3.70944 23.6578 3.58733L20.6563 0.377584C20.4302 0.135821 20.1236 0 19.8039 0C19.4842 0 19.1775 0.135821 18.9515 0.377584C18.7254 0.619347 18.5984 0.947248 18.5984 1.28915C18.5984 1.63106 18.7254 1.95896 18.9515 2.20072L19.9119 3.215H14.4012C14.0828 3.215 13.7774 3.35027 13.5522 3.59105C13.3271 3.83183 13.2006 4.15839 13.2006 4.4989C13.2006 4.83942 13.3271 5.16598 13.5522 5.40676C13.7774 5.64754 14.0828 5.7828 14.4012 5.7828H19.9119L18.9515 6.79709C18.8389 6.91644 18.7496 7.05844 18.6887 7.2149C18.6277 7.37135 18.5963 7.53917 18.5963 7.70865C18.5963 7.87815 18.6277 8.04596 18.6887 8.20241C18.7496 8.35887 18.8389 8.50087 18.9515 8.62022C19.0631 8.74056 19.1959 8.83608 19.3422 8.90126C19.4885 8.96644 19.6454 9 19.8039 9C19.9624 9 20.1193 8.96644 20.2656 8.90126C20.4119 8.83608 20.5447 8.74056 20.6563 8.62022L23.6578 5.41047C23.7671 5.28837 23.8528 5.14439 23.9099 4.98679C24.03 4.67421 24.03 4.3236 23.9099 4.01102ZM9.5988 3.215H4.08805L5.04853 2.20072C5.27461 1.95896 5.40162 1.63106 5.40162 1.28915C5.40162 0.947248 5.27461 0.619347 5.04853 0.377584C4.82246 0.135821 4.51583 2.54739e-09 4.19611 0C3.87639 -2.54739e-09 3.56976 0.135821 3.34368 0.377584L0.342187 3.58733C0.232884 3.70944 0.147203 3.85342 0.0900611 4.01102C-0.0300204 4.3236 -0.0300204 4.67421 0.0900611 4.98679C0.147203 5.14439 0.232884 5.28837 0.342187 5.41047L3.34368 8.62022C3.45529 8.74056 3.58808 8.83608 3.73439 8.90126C3.88069 8.96644 4.03762 9 4.19611 9C4.3546 9 4.51153 8.96644 4.65783 8.90126C4.80414 8.83608 4.93692 8.74056 5.04853 8.62022C5.16106 8.50087 5.25038 8.35887 5.31133 8.20241C5.37229 8.04596 5.40367 7.87815 5.40367 7.70865C5.40367 7.53917 5.37229 7.37135 5.31133 7.2149C5.25038 7.05844 5.16106 6.91644 5.04853 6.79709L4.08805 5.7828H9.5988C9.91722 5.7828 10.2226 5.64754 10.4478 5.40676C10.6729 5.16598 10.7994 4.83942 10.7994 4.4989C10.7994 4.15839 10.6729 3.83183 10.4478 3.59105C10.2226 3.35027 9.91722 3.215 9.5988 3.215Z" fill="#6B6B6B"/>
</svg>
