<svg width="860" height="15" viewBox="0 0 860 15" fill="none" xmlns="http://www.w3.org/2000/svg">
<path d="M9.15137 12.304C15.4234 12.304 16.5274 9.232 16.5274 7.376V7.248H12.0634C12.0154 7.504 11.7594 9.024 8.81537 9.024C6.06337 9.024 5.48737 7.344 5.48737 6.192V6C5.48737 4.864 6.03137 3.248 8.79937 3.248C11.7594 3.248 12.0154 4.752 12.0634 5.04H16.5274V4.912C16.5274 2.912 15.3914 0.0159998 9.15137 0.0159998H8.43137C2.22337 0.0159998 0.975372 3.536 0.975372 5.888V6.368C0.975372 8.704 2.25537 12.304 8.43137 12.304H9.15137Z" fill="white"/>
<path d="M47.1891 9.104V14.112H51.1411V12.112H60.5491V14.112H64.5011V9.104H62.5811V0.208H49.7171C49.7171 5.792 49.2851 7.568 48.5971 9.104H47.1891ZM52.7091 9.104C53.1411 8.08 53.6531 6.576 53.6531 3.216H58.2611V9.104H52.7091Z" fill="white"/>
<path d="M95.844 0.208V12.112H107.844V9.2H100.148V7.568H107.492V4.608H100.148V3.088H107.732V0.208H95.844Z" fill="white"/>
<path d="M149.256 12.112H153.576V0.208H141.016C141.016 5.872 140.968 7.056 140.616 7.824C140.36 8.384 139.944 8.736 139.192 8.736H138.936V12.112H140.296C142.76 12.112 143.896 11.248 144.488 9.76C144.952 8.56 145.144 6.496 145.144 3.216H149.256V12.112Z" fill="white"/>
<path d="M194.544 7.392H190.896L192.704 3.328L194.544 7.392ZM196.672 12.112H201.248L195.616 0.208H189.968L184.464 12.112H188.768L189.632 10.176H195.792L196.672 12.112Z" fill="white"/>
<path d="M232.128 12.112H236.448V7.6H242.48V12.112H246.784V0.208H242.48V4.4H236.448V0.208H232.128V12.112Z" fill="white"/>
<path d="M286.208 0C279.888 0 278.544 3.408 278.544 5.888V6.368C278.544 8.8 279.872 12.32 286.208 12.32H286.928C293.296 12.32 294.592 8.8 294.592 6.368V5.888C294.592 3.424 293.28 0 286.928 0H286.208ZM290.08 6.192C290.08 7.344 289.568 9.04 286.576 9.04C283.584 9.04 283.056 7.344 283.056 6.192V6.016C283.056 4.864 283.552 3.232 286.56 3.232C289.568 3.232 290.08 4.864 290.08 6.016V6.192Z" fill="white"/>
<path d="M360.788 12.112H370.724C374.612 12.112 375.812 10.576 375.812 8.608V8.448C375.812 6.4 374.084 5.696 372.852 5.52C373.748 5.392 375.156 4.704 375.156 3.104V2.992C375.156 1.504 374.116 0.208 370.708 0.208H360.788V12.112ZM369.508 2.992C370.404 2.992 370.708 3.328 370.708 3.84V3.872C370.708 4.368 370.42 4.72 369.508 4.72H365.108V2.992H369.508ZM369.828 7.296C370.98 7.296 371.172 7.712 371.172 8.176V8.24C371.172 8.688 370.98 9.2 369.828 9.2H365.108V7.296H369.828Z" fill="white"/>
<path d="M449.526 12.304C455.798 12.304 456.902 9.232 456.902 7.376V7.248H452.438C452.39 7.504 452.134 9.024 449.19 9.024C446.438 9.024 445.862 7.344 445.862 6.192V6C445.862 4.864 446.406 3.248 449.174 3.248C452.134 3.248 452.39 4.752 452.438 5.04H456.902V4.912C456.902 2.912 455.766 0.0159998 449.526 0.0159998H448.806C442.598 0.0159998 441.35 3.536 441.35 5.888V6.368C441.35 8.704 442.63 12.304 448.806 12.304H449.526Z" fill="white"/>
<path d="M488.65 12.112H492.97V7.6H499.002V12.112H503.306V0.208H499.002V4.4H492.97V0.208H488.65V12.112Z" fill="white"/>
<path d="M544.266 7.392H540.618L542.426 3.328L544.266 7.392ZM546.394 12.112H550.97L545.338 0.208H539.69L534.186 12.112H538.49L539.354 10.176H545.514L546.394 12.112Z" fill="white"/>
<path d="M584.573 12.112H588.877V3.488H593.645V0.208H579.805V3.488H584.573V12.112Z" fill="white"/>
<path d="M625.325 12.112H635.261C639.149 12.112 640.349 10.576 640.349 8.608V8.448C640.349 6.4 638.621 5.696 637.389 5.52C638.285 5.392 639.693 4.704 639.693 3.104V2.992C639.693 1.504 638.653 0.208 635.245 0.208H625.325V12.112ZM634.045 2.992C634.941 2.992 635.245 3.328 635.245 3.84V3.872C635.245 4.368 634.957 4.72 634.045 4.72H629.645V2.992H634.045ZM634.365 7.296C635.517 7.296 635.709 7.712 635.709 8.176V8.24C635.709 8.688 635.517 9.2 634.365 9.2H629.645V7.296H634.365Z" fill="white"/>
<path d="M679.124 0C672.804 0 671.46 3.408 671.46 5.888V6.368C671.46 8.8 672.788 12.32 679.124 12.32H679.844C686.212 12.32 687.508 8.8 687.508 6.368V5.888C687.508 3.424 686.196 0 679.844 0H679.124ZM682.996 6.192C682.996 7.344 682.484 9.04 679.492 9.04C676.5 9.04 675.972 7.344 675.972 6.192V6.016C675.972 4.864 676.468 3.232 679.476 3.232C682.484 3.232 682.996 4.864 682.996 6.016V6.192Z" fill="white"/>
<path d="M723.123 12.112H727.427V3.488H732.195V0.208H718.355V3.488H723.123V12.112Z" fill="white"/>
<path d="M766.097 8.544H761.617V12.112H766.097V8.544Z" fill="white"/>
<path d="M802.373 3.248H806.773C807.909 3.248 808.165 3.712 808.165 4.224V4.256C808.165 4.768 807.909 5.28 806.773 5.28H802.373V3.248ZM809.973 6.384C811.333 6.128 812.645 5.264 812.645 3.568V3.456C812.645 1.904 812.021 0.208 807.669 0.208H798.053V12.112H802.373V8.384H806.149C807.845 8.384 808.373 8.832 808.373 10.368V11.376C808.373 11.824 808.437 12.048 808.485 12.112H812.917V12.032C812.805 11.856 812.741 11.68 812.741 11.056V9.216C812.741 7.36 811.509 6.64 809.973 6.384Z" fill="white"/>
<path d="M852.381 12.288C858.909 12.288 859.549 8.24 859.549 5.888V0.208H855.261V5.856C855.261 7.216 854.829 8.784 852.157 8.784H852.093C849.389 8.784 848.925 7.216 848.925 5.856V0.208H844.637V5.888C844.637 8.24 845.101 12.288 851.885 12.288H852.381Z" fill="white"/>
</svg>
