<svg width="20" height="20" viewBox="0 0 20 20" fill="none" xmlns="http://www.w3.org/2000/svg">
<path d="M19.7754 9.88L17.7754 7.38C17.6823 7.26215 17.5638 7.16679 17.4288 7.101C17.2937 7.03521 17.1456 7.00069 16.9954 7H10.9954V1C10.9954 0.734784 10.89 0.48043 10.7025 0.292893C10.515 0.105357 10.2606 0 9.9954 0C9.73018 0 9.47583 0.105357 9.28829 0.292893C9.10076 0.48043 8.9954 0.734784 8.9954 1V2H2.9954C2.84519 2.00069 2.69707 2.03521 2.56204 2.101C2.427 2.16679 2.30852 2.26215 2.2154 2.38L0.215398 4.88C0.0758892 5.05655 0 5.27499 0 5.5C0 5.72501 0.0758892 5.94345 0.215398 6.12L2.2154 8.62C2.30852 8.73785 2.427 8.83321 2.56204 8.899C2.69707 8.96479 2.84519 8.99931 2.9954 9H8.9954V18H6.9954C6.73018 18 6.47583 18.1054 6.28829 18.2929C6.10076 18.4804 5.9954 18.7348 5.9954 19C5.9954 19.2652 6.10076 19.5196 6.28829 19.7071C6.47583 19.8946 6.73018 20 6.9954 20H12.9954C13.2606 20 13.515 19.8946 13.7025 19.7071C13.89 19.5196 13.9954 19.2652 13.9954 19C13.9954 18.7348 13.89 18.4804 13.7025 18.2929C13.515 18.1054 13.2606 18 12.9954 18H10.9954V14H16.9954C17.1456 13.9993 17.2937 13.9648 17.4288 13.899C17.5638 13.8332 17.6823 13.7379 17.7754 13.62L19.7754 11.12C19.9149 10.9435 19.9908 10.725 19.9908 10.5C19.9908 10.275 19.9149 10.0565 19.7754 9.88ZM8.9954 7H3.4754L2.2754 5.5L3.4754 4H8.9954V7ZM16.5154 12H10.9954V9H16.5154L17.7154 10.5L16.5154 12Z" fill="#6B6B6B"/>
</svg>
