<svg width="22" height="22" viewBox="0 0 22 22" fill="none" xmlns="http://www.w3.org/2000/svg">
<path d="M7.7 9.9C7.91756 9.9 8.13024 9.83548 8.31113 9.71461C8.49202 9.59374 8.63301 9.42195 8.71627 9.22095C8.79953 9.01995 8.82131 8.79878 8.77887 8.5854C8.73642 8.37202 8.63166 8.17602 8.47782 8.02218C8.32398 7.86834 8.12798 7.76358 7.9146 7.72113C7.70122 7.67869 7.48005 7.70047 7.27905 7.78373C7.07805 7.86699 6.90626 8.00798 6.78539 8.18887C6.66452 8.36976 6.6 8.58244 6.6 8.8C6.6 9.09174 6.7159 9.37152 6.92219 9.57781C7.12848 9.7841 7.40827 9.9 7.7 9.9ZM13.596 13.453C12.8607 14.0459 11.9446 14.3692 11 14.3692C10.0554 14.3692 9.13933 14.0459 8.404 13.453C8.17937 13.2663 7.88976 13.1765 7.59889 13.2033C7.30802 13.2301 7.03972 13.3714 6.853 13.596C6.66629 13.8206 6.57646 14.1102 6.60328 14.4011C6.6301 14.692 6.77136 14.9603 6.996 15.147C8.11947 16.0849 9.53652 16.5986 11 16.5986C12.4635 16.5986 13.8805 16.0849 15.004 15.147C15.2286 14.9603 15.3699 14.692 15.3967 14.4011C15.4235 14.1102 15.3337 13.8206 15.147 13.596C15.0546 13.4848 14.9411 13.3928 14.8131 13.3255C14.6851 13.2581 14.5451 13.2166 14.4011 13.2033C14.1102 13.1765 13.8206 13.2663 13.596 13.453ZM11 0C8.82441 0 6.69767 0.645139 4.88873 1.85383C3.07979 3.06253 1.66989 4.78049 0.83733 6.79048C0.00476612 8.80047 -0.213071 11.0122 0.211367 13.146C0.635804 15.2798 1.68345 17.2398 3.22183 18.7782C4.76021 20.3165 6.72022 21.3642 8.85401 21.7886C10.9878 22.2131 13.1995 21.9952 15.2095 21.1627C17.2195 20.3301 18.9375 18.9202 20.1462 17.1113C21.3549 15.3023 22 13.1756 22 11C22 9.55546 21.7155 8.12506 21.1627 6.79048C20.6099 5.4559 19.7996 4.24327 18.7782 3.22182C17.7567 2.20038 16.5441 1.39013 15.2095 0.837325C13.8749 0.284523 12.4445 0 11 0ZM11 19.8C9.25953 19.8 7.55814 19.2839 6.11099 18.3169C4.66383 17.35 3.53592 15.9756 2.86986 14.3676C2.20381 12.7596 2.02954 10.9902 2.36909 9.2832C2.70864 7.57617 3.54676 6.00816 4.77746 4.77746C6.00817 3.54676 7.57618 2.70864 9.28321 2.36909C10.9902 2.02954 12.7596 2.20381 14.3676 2.86986C15.9756 3.53591 17.35 4.66383 18.3169 6.11098C19.2839 7.55813 19.8 9.25952 19.8 11C19.8 13.3339 18.8729 15.5722 17.2225 17.2225C15.5722 18.8729 13.3339 19.8 11 19.8ZM17.182 7.843C16.5525 7.24569 15.7178 6.9127 14.85 6.9127C13.9822 6.9127 13.1475 7.24569 12.518 7.843C12.3378 8.05343 12.2436 8.32411 12.2543 8.60096C12.265 8.8778 12.3798 9.14041 12.5757 9.33632C12.7716 9.53222 13.0342 9.64699 13.311 9.65768C13.5879 9.66837 13.8586 9.57421 14.069 9.394C14.1713 9.2909 14.2929 9.20906 14.427 9.15322C14.561 9.09737 14.7048 9.06862 14.85 9.06862C14.9952 9.06862 15.139 9.09737 15.273 9.15322C15.4071 9.20906 15.5287 9.2909 15.631 9.394C15.8371 9.59887 16.1159 9.71387 16.4065 9.71387C16.6971 9.71387 16.9759 9.59887 17.182 9.394C17.3869 9.1879 17.5019 8.9091 17.5019 8.6185C17.5019 8.32789 17.3869 8.0491 17.182 7.843Z" fill="#6B6B6B"/>
</svg>
