<svg width="22" height="22" viewBox="0 0 22 22" fill="none" xmlns="http://www.w3.org/2000/svg">
<path d="M21.9631 7.9467C21.8937 7.74577 21.7675 7.56929 21.5999 7.43865C21.4322 7.30801 21.2302 7.22883 21.0184 7.21071L14.7679 6.29895L11.9667 0.619678C11.8768 0.433952 11.7363 0.27732 11.5615 0.167724C11.3866 0.0581273 11.1844 0 10.9781 0C10.7717 0 10.5695 0.0581273 10.3946 0.167724C10.2198 0.27732 10.0793 0.433952 9.9894 0.619678L7.18821 6.28796L0.937716 7.21071C0.734408 7.2396 0.54327 7.32491 0.385993 7.45694C0.228715 7.58898 0.111597 7.76246 0.0479275 7.95769C-0.0103537 8.14847 -0.0155837 8.35152 0.0327986 8.54505C0.081181 8.73858 0.181349 8.91528 0.322554 9.05619L4.85938 13.4502L3.76087 19.6897C3.72166 19.8957 3.74219 20.1085 3.82005 20.3032C3.89791 20.4978 4.02985 20.6661 4.20028 20.7882C4.36639 20.907 4.56231 20.9771 4.76606 20.9907C4.9698 21.0042 5.1733 20.9608 5.35371 20.8651L10.9781 17.9321L16.5804 20.8761C16.7346 20.9631 16.9087 21.0085 17.0857 21.0079C17.3184 21.0088 17.5454 20.9357 17.7339 20.7992C17.9043 20.6771 18.0362 20.5088 18.1141 20.3142C18.1919 20.1195 18.2125 19.9067 18.1733 19.7007L17.0748 13.4612L21.6116 9.06718C21.7702 8.93281 21.8874 8.7562 21.9496 8.55786C22.0119 8.35952 22.0165 8.14759 21.9631 7.9467ZM15.2073 12.3407C15.0785 12.4653 14.9821 12.6196 14.9266 12.79C14.871 12.9604 14.858 13.1418 14.8887 13.3184L15.6797 17.9211L11.5493 15.7241C11.3903 15.6395 11.213 15.5952 11.033 15.5952C10.8529 15.5952 10.6756 15.6395 10.5167 15.7241L6.3863 17.9211L7.17722 13.3184C7.20791 13.1418 7.19492 12.9604 7.1394 12.79C7.08387 12.6196 6.98749 12.4653 6.85866 12.3407L3.56314 9.04521L8.18785 8.37512C8.36581 8.35037 8.53497 8.28234 8.68053 8.17701C8.82608 8.07167 8.94357 7.93225 9.02271 7.77094L10.9781 3.58564L13.0432 7.78193C13.1224 7.94323 13.2399 8.08266 13.3854 8.18799C13.531 8.29333 13.7001 8.36135 13.8781 8.38611L18.5028 9.05619L15.2073 12.3407Z" fill="#6B6B6B"/>
</svg>
