<svg width="22" height="22" viewBox="0 0 22 22" fill="none" xmlns="http://www.w3.org/2000/svg">
<path d="M11 0C8.82441 0 6.69767 0.645139 4.88873 1.85383C3.07979 3.06253 1.66989 4.78049 0.83733 6.79048C0.00476612 8.80047 -0.213071 11.0122 0.211367 13.146C0.635804 15.2798 1.68345 17.2398 3.22183 18.7782C4.76021 20.3165 6.72022 21.3642 8.85401 21.7886C10.9878 22.2131 13.1995 21.9952 15.2095 21.1627C17.2195 20.3301 18.9375 18.9202 20.1462 17.1113C21.3549 15.3023 22 13.1756 22 11C22 9.55546 21.7155 8.12506 21.1627 6.79048C20.6099 5.4559 19.7996 4.24327 18.7782 3.22182C17.7567 2.20038 16.5441 1.39013 15.2095 0.837325C13.8749 0.284523 12.4445 0 11 0ZM11 19.8C9.25953 19.8 7.55814 19.2839 6.11099 18.3169C4.66383 17.35 3.53592 15.9756 2.86986 14.3676C2.20381 12.7596 2.02954 10.9902 2.36909 9.2832C2.70864 7.57617 3.54676 6.00816 4.77746 4.77746C6.00817 3.54676 7.57618 2.70864 9.28321 2.36909C10.9902 2.02954 12.7596 2.20381 14.3676 2.86986C15.9756 3.53591 17.35 4.66383 18.3169 6.11098C19.2839 7.55813 19.8 9.25952 19.8 11C19.8 13.3339 18.8729 15.5722 17.2225 17.2225C15.5722 18.8729 13.3339 19.8 11 19.8ZM13.31 8.393L12.1 9.097V5.5C12.1 5.20826 11.9841 4.92847 11.7778 4.72218C11.5715 4.51589 11.2917 4.4 11 4.4C10.7083 4.4 10.4285 4.51589 10.2222 4.72218C10.0159 4.92847 9.9 5.20826 9.9 5.5V11C9.9 11 9.9 11 9.9 11.066C9.89483 11.1392 9.89483 11.2128 9.9 11.286C9.91704 11.3536 9.9391 11.4197 9.966 11.484C9.966 11.484 9.966 11.484 9.966 11.55C10.0185 11.628 10.0774 11.7016 10.142 11.77C10.2309 11.8581 10.3353 11.929 10.45 11.979H10.538C10.6813 12.0527 10.839 12.094 11 12.1C11.1282 12.0963 11.2548 12.0703 11.374 12.023H11.473H11.55L14.41 10.373C14.6638 10.2271 14.8493 9.98641 14.9256 9.70379C15.0019 9.42117 14.9629 9.11981 14.817 8.866C14.6711 8.61219 14.4304 8.42672 14.1478 8.35039C13.8652 8.27406 13.5638 8.31313 13.31 8.459V8.393Z" fill="#6B6B6B"/>
</svg>
