<svg width="544" height="35" viewBox="0 0 544 35" fill="none" xmlns="http://www.w3.org/2000/svg">
<path d="M36.041 34H28.1924L28.3594 15.1113H27.5244L14.2021 34H0.787109V8.67285H8.63574L8.4502 27.5615H9.24805L22.5146 8.67285H36.041V34ZM39.6035 34V8.67285H56.9521C60.391 8.67285 62.6051 8.74089 63.5947 8.87695C66.1058 9.21094 67.8005 10.0212 68.6787 11.3076C69.5693 12.5817 70.0146 14.8639 70.0146 18.1543C70.0146 21.2839 69.6497 23.4795 68.9199 24.7412C68.4251 25.5947 67.7324 26.2441 66.8418 26.6895C65.9512 27.1348 64.7327 27.444 63.1865 27.6172C62.0856 27.7409 60.0322 27.8027 57.0264 27.8027H47.3223V34H39.6035ZM47.3223 21.4756H56.9707C58.7272 21.4632 59.7972 21.4385 60.1807 21.4014C60.5765 21.3643 60.929 21.2653 61.2383 21.1045C61.6341 20.8942 61.9062 20.5788 62.0547 20.1582C62.2031 19.7253 62.2773 19.0573 62.2773 18.1543C62.2773 17.2513 62.1846 16.5895 61.999 16.1689C61.8135 15.7484 61.4857 15.4453 61.0156 15.2598C60.6693 15.1237 59.321 15.0371 56.9707 15H47.3223V21.4756ZM100.055 34L97.8838 29.7139H81.1289L78.958 34H70.1445L83.5781 8.67285H95.5645L108.812 34H100.055ZM95.1748 24.166L90.2949 14.5732H88.7549L83.875 24.166H95.1748ZM109.963 8.67285H117.682V17.8574H121.912L131.932 8.50586H143.732L129.093 21.1045L144.976 34H133.249L121.912 24.3145H117.682V34H109.963V8.67285ZM156.238 8.67285H168.095L180.452 34H172.028L162.881 15.0371H161.434L152.193 34H143.714L156.238 8.67285ZM216.986 34H209.138L209.305 15.1113H208.47L195.147 34H181.732V8.67285H189.581L189.396 27.5615H190.193L203.46 8.67285H216.986V34ZM255.803 34H247.954L248.121 15.1113H247.286L233.964 34H220.549V8.67285H228.397L228.212 27.5615H229.01L242.276 8.67285H255.803V34ZM229.9 0.378906H233.556C233.853 1.24479 234.255 1.84473 234.762 2.17871C235.702 2.78483 237.032 3.08789 238.751 3.08789C240.272 3.08789 241.429 2.8776 242.221 2.45703C243.025 2.03646 243.6 1.34375 243.946 0.378906H247.583C247.348 1.97461 246.76 3.28581 245.82 4.3125C244.249 6.0319 241.93 6.8916 238.862 6.8916C236.364 6.8916 234.323 6.31641 232.739 5.16602C231.168 4.01562 230.222 2.41992 229.9 0.378906ZM267.084 8.67285H297.736V15.1299H286.474V34H278.365V15.1299H267.084V8.67285ZM299.518 34V8.67285H316.866C320.305 8.67285 322.519 8.74089 323.509 8.87695C326.02 9.21094 327.715 10.0212 328.593 11.3076C329.483 12.5817 329.929 14.8639 329.929 18.1543C329.929 21.2839 329.564 23.4795 328.834 24.7412C328.339 25.5947 327.646 26.2441 326.756 26.6895C325.865 27.1348 324.647 27.444 323.101 27.6172C322 27.7409 319.946 27.8027 316.94 27.8027H307.236V34H299.518ZM307.236 21.4756H316.885C318.641 21.4632 319.711 21.4385 320.095 21.4014C320.491 21.3643 320.843 21.2653 321.152 21.1045C321.548 20.8942 321.82 20.5788 321.969 20.1582C322.117 19.7253 322.191 19.0573 322.191 18.1543C322.191 17.2513 322.099 16.5895 321.913 16.1689C321.728 15.7484 321.4 15.4453 320.93 15.2598C320.583 15.1237 319.235 15.0371 316.885 15H307.236V21.4756ZM359.969 34L357.798 29.7139H341.043L338.872 34H330.059L343.492 8.67285H355.479L368.727 34H359.969ZM355.089 24.166L350.209 14.5732H348.669L343.789 24.166H355.089ZM369.877 8.67285H377.985V17.7275H395.408V8.67285H403.517V34H395.408V24.8154H377.985V34H369.877V8.67285ZM431.145 24.2217H438.863C438.913 25.4587 438.938 26.2565 438.938 26.6152C438.938 28.5697 438.647 30.0973 438.065 31.1982C437.422 32.4352 436.167 33.2764 434.299 33.7217C432.431 34.167 429.202 34.3896 424.613 34.3896C419.789 34.3896 416.35 34.2969 414.297 34.1113C412.256 33.9258 410.716 33.5671 409.677 33.0352C408.749 32.5527 408.056 31.9033 407.599 31.0869C407.141 30.2705 406.844 29.151 406.708 27.7285C406.597 26.5781 406.541 24.5 406.541 21.4941C406.541 18.5625 406.597 16.4473 406.708 15.1484C406.819 13.8496 407.036 12.8415 407.357 12.124C408.062 10.516 409.491 9.47689 411.644 9.00684C413.796 8.52441 418.138 8.2832 424.669 8.2832C427.935 8.2832 430.31 8.35742 431.794 8.50586C433.278 8.6543 434.46 8.93262 435.338 9.34082C436.488 9.88509 437.299 10.6953 437.769 11.7715C438.239 12.8353 438.474 14.4062 438.474 16.4844C438.474 16.5957 438.467 17.0163 438.455 17.7461H430.736C430.699 16.9049 430.644 16.3421 430.569 16.0576C430.507 15.7731 430.371 15.5381 430.161 15.3525C429.864 15.0928 429.116 14.9072 427.916 14.7959C426.716 14.6722 424.898 14.6104 422.461 14.6104C420.049 14.6104 418.379 14.666 417.451 14.7773C416.523 14.8763 415.868 15.0804 415.484 15.3896C415.027 15.7607 414.705 16.3854 414.52 17.2637C414.346 18.1419 414.26 19.5397 414.26 21.457C414.26 23.3743 414.34 24.7288 414.501 25.5205C414.662 26.2998 414.971 26.8626 415.429 27.209C415.862 27.543 416.548 27.7656 417.488 27.877C418.441 27.9883 420.117 28.0439 422.517 28.0439C425.473 28.0439 427.44 27.9945 428.417 27.8955C429.407 27.7965 430.075 27.5801 430.421 27.2461C430.879 26.8132 431.12 25.805 431.145 24.2217ZM456.175 34V30.3262H454.598C451.604 30.3262 449.551 30.2643 448.438 30.1406C446.891 29.9674 445.673 29.6582 444.782 29.2129C443.892 28.7676 443.199 28.1182 442.704 27.2646C441.974 26.0029 441.609 23.8073 441.609 20.6777C441.609 17.3874 442.049 15.099 442.927 13.8125C443.817 12.526 445.518 11.722 448.029 11.4004C449.019 11.2643 451.233 11.1963 454.672 11.1963H456.175V8.67285H463.986V11.1963H465.489C468.928 11.1963 471.142 11.2643 472.132 11.4004C474.643 11.722 476.338 12.526 477.216 13.8125C478.106 15.099 478.552 17.3874 478.552 20.6777C478.552 23.8073 478.187 26.0029 477.457 27.2646C476.962 28.1182 476.27 28.7676 475.379 29.2129C474.488 29.6582 473.27 29.9674 471.724 30.1406C470.61 30.2643 468.557 30.3262 465.563 30.3262H463.986V34H456.175ZM450.608 17.7832C450.138 17.9688 449.811 18.278 449.625 18.7109C449.439 19.1315 449.347 19.7871 449.347 20.6777C449.347 21.5807 449.421 22.2487 449.569 22.6816C449.718 23.1022 449.99 23.4176 450.386 23.6279C450.707 23.7887 451.06 23.8877 451.443 23.9248C451.839 23.9619 452.915 23.9867 454.672 23.999H456.175V17.5234H454.672C452.322 17.5605 450.967 17.6471 450.608 17.7832ZM465.489 23.999C467.246 23.9867 468.316 23.9619 468.699 23.9248C469.095 23.8877 469.454 23.7887 469.775 23.6279C470.171 23.4176 470.443 23.1022 470.592 22.6816C470.74 22.2487 470.814 21.5807 470.814 20.6777C470.814 19.7871 470.722 19.1315 470.536 18.7109C470.351 18.278 470.023 17.9688 469.553 17.7832C469.194 17.6471 467.84 17.5605 465.489 17.5234H463.986V23.999H465.489ZM482.207 8.67285H510.262V14.6289H489.814V18.2842H509.223V23.8506H489.814V27.9141H510.41V34H482.207V8.67285ZM512.822 34V8.67285H530.171C533.61 8.67285 535.824 8.74089 536.813 8.87695C539.325 9.21094 541.019 10.0212 541.897 11.3076C542.788 12.5817 543.233 14.8639 543.233 18.1543C543.233 21.2839 542.868 23.4795 542.139 24.7412C541.644 25.5947 540.951 26.2441 540.061 26.6895C539.17 27.1348 537.951 27.444 536.405 27.6172C535.304 27.7409 533.251 27.8027 530.245 27.8027H520.541V34H512.822ZM520.541 21.4756H530.189C531.946 21.4632 533.016 21.4385 533.399 21.4014C533.795 21.3643 534.148 21.2653 534.457 21.1045C534.853 20.8942 535.125 20.5788 535.273 20.1582C535.422 19.7253 535.496 19.0573 535.496 18.1543C535.496 17.2513 535.403 16.5895 535.218 16.1689C535.032 15.7484 534.704 15.4453 534.234 15.2598C533.888 15.1237 532.54 15.0371 530.189 15H520.541V21.4756Z" fill="url(#paint0_linear_1_16)"/>
<defs>
<linearGradient id="paint0_linear_1_16" x1="173.072" y1="44" x2="205.926" y2="-56.0038" gradientUnits="userSpaceOnUse">
<stop stop-color="#1153FC"/>
<stop offset="1" stop-color="#5480F1"/>
</linearGradient>
</defs>
</svg>
