<svg width="177" height="187" viewBox="0 0 177 187" fill="none" xmlns="http://www.w3.org/2000/svg">
<path d="M88.0869 187C74.2625 187 62.8927 176.491 61.5306 163.025C51.0462 171.584 35.5754 170.975 25.8 161.2C16.0247 151.425 15.4162 135.954 23.9744 125.469C10.5092 124.107 -6.04282e-07 112.737 0 98.913C1.09415e-06 85.0886 10.5092 73.7188 23.9744 72.3568C15.4162 61.8723 16.0248 46.4015 25.8001 36.6262C35.5754 26.8509 51.0462 26.2423 61.5306 34.8005C62.8927 21.3354 74.2625 10.8262 88.0869 10.8262C101.911 10.8262 113.281 21.3354 114.643 34.8005C125.128 26.2423 140.598 26.8509 150.374 36.6262C160.149 46.4015 160.758 61.8723 152.199 72.3568C165.665 73.7188 176.174 85.0886 176.174 98.913C176.174 112.737 165.665 124.107 152.199 125.469C160.758 135.954 160.149 151.425 150.374 161.2C140.598 170.975 125.128 171.584 114.643 163.025C113.281 176.491 101.911 187 88.0869 187Z" fill="#6B1313"/>
<rect y="86.6106" width="3.93684" height="12.7947" fill="#6B1313"/>
<rect x="18.7002" y="43.3053" width="2.95263" height="11.8105" fill="#6B1313"/>
<rect x="18.7002" y="129.916" width="2.95263" height="11.8105" fill="#6B1313"/>
<rect x="154.521" y="129.916" width="3.93684" height="11.8105" fill="#6B1313"/>
<rect x="172.237" y="87.5947" width="3.93684" height="11.8105" fill="#6B1313"/>
<rect x="154.521" y="43.3053" width="3.93684" height="11.8105" fill="#6B1313"/>
<path d="M88.0869 175.19C74.2625 175.19 62.8927 164.739 61.5306 151.349C51.0462 159.859 35.5754 159.254 25.8 149.534C16.0247 139.813 15.4162 124.429 23.9744 114.003C10.5092 112.648 -6.04282e-07 101.342 0 87.5947C1.09415e-06 73.8476 10.5092 62.5413 23.9744 61.1869C15.4162 50.761 16.0248 35.3766 25.8001 25.6559C35.5754 15.9352 51.0462 15.3301 61.5306 23.8404C62.8927 10.4505 74.2625 1.08804e-06 88.0869 0C101.911 -6.00906e-07 113.281 10.4505 114.643 23.8404C125.128 15.33 140.598 15.9352 150.374 25.6559C160.149 35.3766 160.758 50.761 152.199 61.1869C165.665 62.5413 176.174 73.8476 176.174 87.5948C176.174 101.342 165.665 112.648 152.199 114.003C160.758 124.429 160.149 139.813 150.374 149.534C140.598 159.254 125.128 159.859 114.643 151.349C113.281 164.739 101.911 175.19 88.0869 175.19Z" fill="url(#paint0_linear_1_116)"/>
<path d="M68.0299 79.992L68.2399 71.13L41.3179 94.608L41.1079 103.47L68.0299 79.992ZM47.9119 72.6H41.1079V103.47L47.9119 96.498V72.6ZM68.2399 71.13L61.3939 78.354V102H68.2399V71.13ZM100.326 72.6H76.1756V89.988C76.1756 90.884 76.0776 91.71 75.8816 92.466C75.6856 93.222 75.3916 93.866 74.9996 94.398C74.6356 94.902 74.1736 95.294 73.6136 95.574C73.0816 95.854 72.4656 95.994 71.7656 95.994V102C74.4816 102 76.6936 101.552 78.4016 100.656C80.1096 99.732 81.3556 98.346 82.1396 96.498C82.9516 94.622 83.3576 92.312 83.3576 89.568V78.942H93.1016V102H100.326V72.6ZM133.696 79.992L133.906 71.13L106.984 94.608L106.774 103.47L133.696 79.992ZM113.578 72.6H106.774V103.47L113.578 96.498V72.6ZM133.906 71.13L127.06 78.354V102H133.906V71.13Z" fill="white"/>
<defs>
<linearGradient id="paint0_linear_1_116" x1="88.0869" y1="0" x2="88.0869" y2="175.19" gradientUnits="userSpaceOnUse">
<stop stop-color="#F53F33"/>
<stop offset="1" stop-color="#BA1010"/>
</linearGradient>
</defs>
</svg>
